<?xml version="1.0" standalone="no"?>
<!DOCTYPE svg PUBLIC "-//W3C//DTD SVG 20010904//EN"
 "http://www.w3.org/TR/2001/REC-SVG-20010904/DTD/svg10.dtd">
<svg version="1.0" xmlns="http://www.w3.org/2000/svg"
 width="353.000000pt" height="306.000000pt" viewBox="0 0 353.000000 306.000000"
 preserveAspectRatio="xMidYMid meet">

<g transform="translate(0.000000,306.000000) scale(0.100000,-0.100000)"
fill="#000000" stroke="none">
<path d="M1307 2863 c-2 -5 -2 -30 1 -56 4 -49 24 -61 30 -19 4 27 18 28 34 2
7 -11 18 -20 25 -20 16 0 17 12 1 28 -8 8 -8 15 1 25 21 27 2 47 -44 47 -24 0
-46 -3 -48 -7z m73 -23 c0 -5 -11 -10 -25 -10 -14 0 -25 5 -25 10 0 6 11 10
25 10 14 0 25 -4 25 -10z"/>
<path d="M1430 2825 c0 -33 4 -45 15 -45 11 0 15 12 15 45 0 33 -4 45 -15 45
-11 0 -15 -12 -15 -45z"/>
<path d="M1492 2825 c-18 -37 -19 -45 -7 -45 8 0 15 5 15 10 0 17 42 11 56 -7
22 -31 27 -6 8 41 -11 27 -26 46 -35 46 -8 0 -25 -20 -37 -45z m43 5 c3 -5 1
-10 -4 -10 -6 0 -11 5 -11 10 0 6 2 10 4 10 3 0 8 -4 11 -10z"/>
<path d="M1643 2822 l-10 -50 30 -6 c44 -9 54 -8 71 10 19 19 21 58 4 72 -7 6
-29 13 -49 17 l-36 7 -10 -50z m68 18 c6 0 9 -12 7 -27 -2 -20 -9 -29 -25 -31
-20 -3 -23 1 -23 33 0 30 3 36 16 31 9 -3 20 -6 25 -6z"/>
<path d="M1222 2851 c-37 -7 -36 -4 -26 -66 5 -36 10 -45 23 -41 9 2 31 7 49
11 47 10 40 26 -8 19 -45 -7 -57 10 -15 20 14 4 23 11 20 15 -3 5 -14 7 -24 4
-10 -3 -21 0 -25 5 -3 5 10 13 29 16 19 4 35 11 35 16 0 11 -7 11 -58 1z"/>
<path d="M1776 2833 c-20 -72 -18 -82 11 -89 15 -3 35 -8 45 -10 9 -3 19 0 22
5 4 6 -9 13 -29 17 -19 3 -35 12 -35 19 0 8 9 10 25 7 15 -2 25 0 25 7 0 6 -9
11 -20 11 -11 0 -20 5 -20 11 0 7 12 9 35 5 47 -9 45 10 -2 23 -50 14 -51 14
-57 -6z"/>
<path d="M1138 2835 c-9 -9 17 -95 29 -95 16 0 16 0 2 56 -11 41 -18 51 -31
39z"/>
<path d="M1084 2805 c21 -52 22 -50 -19 -27 -55 33 -67 24 -47 -32 9 -25 22
-46 29 -46 9 0 10 7 3 26 -14 36 -14 36 31 14 23 -12 43 -19 46 -16 11 11 -20
96 -34 96 -10 0 -13 -6 -9 -15z"/>
<path d="M1927 2793 c-15 -15 -5 -44 18 -55 14 -6 25 -15 25 -20 0 -12 -13
-10 -37 7 -13 9 -24 11 -28 6 -7 -12 33 -41 56 -41 22 0 41 24 33 43 -3 8 -1
18 5 22 18 10 13 21 -14 33 -29 13 -49 15 -58 5z m47 -19 c17 -6 22 -24 8 -24
-5 0 -17 7 -28 15 -19 15 -8 20 20 9z"/>
<path d="M929 2762 l-37 -17 22 -46 21 -47 43 19 c24 10 41 23 37 29 -4 6 -16
5 -34 -5 -36 -18 -49 -6 -19 16 27 21 19 35 -11 19 -14 -7 -21 -7 -21 0 0 6
11 16 25 22 14 6 25 15 25 20 0 11 -9 9 -51 -10z"/>
<path d="M2022 2725 c-26 -54 -26 -55 -8 -55 17 0 50 80 39 91 -5 5 -19 -11
-31 -36z"/>
<path d="M2077 2733 c-15 -14 -6 -42 20 -59 18 -11 23 -19 15 -22 -7 -2 -22 4
-33 14 -26 23 -37 10 -14 -16 25 -28 69 -23 73 7 2 14 -4 26 -17 33 -12 6 -21
16 -21 22 0 6 11 3 26 -7 33 -22 46 -9 15 16 -23 19 -52 25 -64 12z"/>
<path d="M818 2709 c-32 -18 -41 -48 -23 -75 20 -30 61 -32 91 -3 18 17 21 25
12 39 -9 15 -16 16 -35 7 -30 -13 -30 -31 -1 -21 21 6 21 5 9 -10 -20 -24 -55
-17 -59 12 -3 18 3 26 27 35 17 6 31 15 31 19 0 11 -32 9 -52 -3z"/>
<path d="M2175 2691 c-2 -5 2 -14 10 -21 14 -11 13 -17 -4 -46 -18 -29 -18
-44 -1 -44 3 0 14 14 24 30 13 22 23 29 36 25 36 -12 27 11 -16 37 -24 15 -46
23 -49 19z"/>
<path d="M730 2648 c0 -6 8 -20 17 -30 17 -19 16 -19 -35 -12 -29 3 -52 4 -52
0 0 -12 53 -86 61 -86 15 0 10 22 -8 43 -18 19 -17 19 35 12 28 -4 52 -4 52 0
0 11 -54 85 -62 85 -5 0 -8 -5 -8 -12z"/>
<path d="M2257 2595 c-15 -19 -27 -38 -27 -43 0 -15 68 -63 74 -53 4 5 -6 18
-21 29 -30 22 -24 44 6 25 26 -16 35 -3 11 14 -11 8 -18 19 -14 24 3 5 17 0
31 -11 14 -11 29 -17 35 -14 7 5 -3 15 -57 55 -6 5 -22 -6 -38 -26z"/>
<path d="M1908 2594 c-11 -25 -8 -30 71 -107 65 -64 84 -78 92 -66 5 7 9 10 9
5 0 -6 5 -5 12 2 8 8 -9 33 -72 102 -45 49 -86 90 -91 90 -5 0 -15 -12 -21
-26z"/>
<path d="M626 2571 c-8 -13 43 -81 62 -81 19 0 14 12 -22 54 -21 24 -36 34
-40 27z"/>
<path d="M2343 2514 c-33 -35 -26 -59 8 -28 19 17 19 16 13 -14 -6 -31 -6 -31
26 -22 l33 9 -22 -23 c-35 -38 -10 -38 31 -1 29 27 34 36 23 45 -8 7 -21 7
-38 1 -25 -10 -26 -9 -24 26 3 46 -11 48 -50 7z"/>
<path d="M1446 2519 c-2 -8 -10 -39 -17 -69 -13 -60 -24 -80 -45 -80 -7 0 -25
-5 -39 -10 -23 -9 -25 -13 -15 -25 9 -11 9 -15 1 -15 -6 0 -14 6 -17 14 -6 15
-51 12 -68 -5 -9 -8 -3 -10 57 -13 10 -1 32 -13 50 -27 18 -14 51 -36 74 -50
l41 -23 53 24 c66 31 112 71 104 92 -3 8 3 43 15 78 12 34 20 63 18 64 -2 2
-41 13 -88 26 -47 12 -93 25 -102 27 -10 3 -20 -1 -22 -8z m-67 -211 c-13 -5
-27 -4 -33 2 -5 5 -6 10 -2 10 5 0 3 7 -5 16 -10 13 -7 12 25 -2 35 -17 36
-19 15 -26z"/>
<path d="M532 2487 l-32 -33 38 -37 38 -37 34 35 c38 39 34 61 -5 25 -24 -23
-50 -21 -27 2 7 7 12 19 12 27 0 11 -4 10 -20 -4 -28 -25 -38 -10 -12 18 12
13 22 26 22 30 0 15 -18 5 -48 -26z"/>
<path d="M2121 2423 c-23 -9 -80 -75 -75 -87 3 -6 20 -21 39 -32 30 -20 36
-21 60 -8 32 16 38 17 31 5 -3 -4 26 -39 65 -76 55 -54 73 -65 80 -54 17 28 8
46 -61 114 -48 47 -69 76 -66 88 2 9 0 17 -6 17 -6 0 -8 6 -5 14 8 21 -28 32
-62 19z"/>
<path d="M2458 2403 c-48 -14 -65 -33 -29 -33 23 0 45 -25 36 -40 -4 -6 2 -20
14 -31 12 -11 21 -26 21 -34 0 -19 39 -45 57 -38 11 5 14 16 9 47 -5 37 -5 39
9 22 8 -10 16 -24 18 -30 2 -6 8 -8 12 -4 13 12 -20 63 -43 66 -28 4 -39 -21
-23 -55 9 -19 9 -24 -1 -21 -7 3 -14 14 -16 26 -2 12 -10 22 -18 22 -19 0 -18
13 5 60 24 51 12 61 -51 43z m32 -23 c0 -5 -5 -10 -11 -10 -5 0 -7 5 -4 10 3
6 8 10 11 10 2 0 4 -4 4 -10z"/>
<path d="M445 2378 l-27 -32 39 -32 38 -33 22 27 c28 34 30 78 4 92 -32 16
-48 12 -76 -22z m75 -18 c0 -18 -13 -40 -23 -40 -6 0 -19 7 -29 17 -17 15 -17
18 -2 34 13 14 21 16 35 8 11 -5 19 -14 19 -19z"/>
<path d="M1160 2301 c0 -11 49 -21 55 -11 5 9 -18 20 -41 20 -8 0 -14 -4 -14
-9z"/>
<path d="M1670 2303 c0 -5 5 -15 10 -23 9 -13 11 -13 19 0 7 10 6 17 -2 22
-15 10 -27 10 -27 1z"/>
<path d="M1103 2273 c-7 -3 -13 -8 -13 -13 0 -11 49 -9 57 3 4 6 0 8 -10 4 -9
-3 -17 -2 -19 2 -2 4 -9 6 -15 4z"/>
<path d="M1747 2250 c3 -11 11 -19 17 -17 17 6 13 31 -6 35 -12 2 -15 -2 -11
-18z"/>
<path d="M442 2225 c-13 -29 -22 -30 -62 -10 -20 10 -31 12 -35 4 -8 -13 -10
-12 42 -38 l43 -21 20 40 c22 44 24 50 12 50 -5 0 -14 -11 -20 -25z"/>
<path d="M2961 2203 c-33 -91 -215 -232 -653 -505 -142 -88 -277 -178 -302
-199 -69 -61 -107 -146 -115 -261 -13 -165 -24 -171 -283 -162 l-183 6 -32
-32 c-33 -33 -53 -94 -36 -111 6 -6 24 -3 49 7 33 14 56 15 149 8 202 -15 295
-11 341 13 63 34 90 72 99 140 21 172 104 298 284 432 42 31 157 105 256 164
249 149 506 329 524 366 21 44 7 98 -37 138 -20 18 -39 33 -42 33 -3 0 -12
-17 -19 -37z"/>
<path d="M1026 2222 c-13 -12 -5 -22 17 -18 12 3 25 5 30 5 4 1 7 4 7 9 0 8
-46 12 -54 4z"/>
<path d="M1817 2203 c11 -33 16 -37 23 -17 9 23 4 34 -15 34 -9 0 -12 -6 -8
-17z"/>
<path d="M1420 2176 c0 -8 4 -17 8 -20 13 -8 35 11 28 23 -10 16 -36 14 -36
-3z"/>
<path d="M967 2163 c-15 -14 -6 -24 16 -18 35 11 44 25 16 25 -14 0 -29 -3
-32 -7z"/>
<path d="M1878 2163 c-8 -15 -3 -36 8 -40 17 -6 25 24 9 37 -7 6 -15 7 -17 3z"/>
<path d="M306 2135 c-5 -15 72 -96 80 -84 3 5 1 16 -5 23 -15 18 -5 43 20 49
10 3 19 10 19 17 0 14 -108 10 -114 -5z m54 -25 c0 -5 -2 -10 -4 -10 -3 0 -8
5 -11 10 -3 6 -1 10 4 10 6 0 11 -4 11 -10z"/>
<path d="M916 2103 c-12 -12 -6 -22 14 -20 25 2 34 22 10 24 -10 1 -21 -1 -24
-4z"/>
<path d="M1420 2097 c0 -12 -56 -41 -74 -38 -5 1 -6 -5 -3 -14 7 -17 -8 -21
-18 -5 -8 13 -21 13 -37 -2 -7 -7 -26 -20 -41 -28 -40 -20 -53 -48 -31 -64 10
-8 17 -25 16 -45 0 -19 9 -47 24 -68 13 -20 24 -32 24 -27 0 5 7 0 16 -11 8
-10 33 -28 57 -40 41 -20 42 -21 39 -65 -2 -35 2 -51 18 -67 13 -15 19 -33 18
-55 -3 -31 -1 -33 27 -30 16 2 34 7 40 11 5 5 18 7 28 6 14 -3 16 0 7 10 -8 9
-8 15 0 20 5 3 10 3 10 -2 1 -12 39 60 40 75 0 6 -6 12 -14 12 -7 0 -24 8 -37
19 -13 10 -47 26 -75 35 -33 11 -56 25 -64 41 -9 18 -19 23 -32 19 -14 -4 -18
0 -18 20 0 22 5 26 29 26 16 0 32 -6 34 -12 3 -7 6 -3 6 10 1 12 5 22 10 22 5
0 13 9 16 20 3 11 17 23 30 26 16 4 22 11 18 21 -5 13 -1 15 20 9 15 -3 27 -5
27 -3 0 13 -47 63 -57 60 -6 -2 -14 1 -18 6 -9 15 -36 14 -34 -1 1 -7 1 -21 0
-31 -1 -17 -2 -17 -17 -3 -8 9 -22 16 -30 16 -8 0 -14 7 -14 15 0 8 5 15 10
15 6 0 19 9 30 20 19 19 47 19 35 0 -8 -13 36 -23 48 -11 12 12 12 12 -32 39
-33 20 -33 20 -11 32 18 10 20 14 9 21 -20 12 -29 11 -29 -4z m-36 -53 c3 -8
2 -12 -4 -9 -6 3 -10 10 -10 16 0 14 7 11 14 -7z"/>
<path d="M1927 2081 c-2 -10 -1 -25 4 -32 7 -11 9 -10 9 4 0 9 4 17 10 17 5 0
7 7 4 15 -8 21 -21 19 -27 -4z"/>
<path d="M1490 2073 c0 -5 5 -14 12 -21 7 -7 8 -12 3 -12 -4 0 0 -9 10 -20 21
-23 55 -27 55 -5 0 8 5 15 10 15 20 0 9 18 -17 28 -49 19 -73 24 -73 15z"/>
<path d="M3140 2046 c-30 -92 -199 -227 -579 -463 -345 -214 -345 -214 -380
-285 -32 -66 -51 -157 -51 -247 0 -49 -4 -58 -41 -98 -51 -55 -49 -77 8 -81
41 -3 42 -4 37 -31 -4 -16 -1 -32 5 -35 6 -4 11 -18 11 -32 0 -13 5 -24 10
-24 6 0 10 -15 10 -33 0 -25 7 -39 30 -55 25 -19 42 -22 117 -22 94 0 153 -22
153 -56 0 -23 -65 -83 -154 -143 -92 -62 -106 -76 -106 -106 0 -35 57 -94 115
-121 95 -45 190 -21 234 57 24 42 20 46 -19 24 -40 -23 -84 -18 -113 11 -34
33 -42 73 -24 117 13 29 25 38 88 63 128 50 173 121 114 179 -23 24 -31 25
-134 25 -128 0 -135 4 -144 81 -4 32 -14 60 -27 74 -11 12 -20 31 -20 43 0 18
-6 22 -30 22 -37 0 -38 14 -4 64 24 34 27 50 28 125 1 72 6 94 28 137 43 83
125 148 329 263 190 108 570 360 595 395 16 23 19 89 4 115 -5 10 -25 30 -44
44 l-34 27 -12 -34z"/>
<path d="M280 2046 c0 -9 12 -19 26 -22 25 -6 25 -7 -15 -31 -23 -13 -41 -28
-41 -32 0 -14 92 -33 103 -22 6 6 -2 13 -24 19 l-34 9 37 18 c54 26 55 42 5
56 -23 6 -45 13 -49 16 -5 2 -8 -3 -8 -11z"/>
<path d="M877 2033 c-15 -14 -6 -31 13 -26 11 3 20 12 20 19 0 14 -22 19 -33
7z"/>
<path d="M1600 2020 c0 -6 7 -10 15 -10 8 0 15 2 15 4 0 2 -7 6 -15 10 -8 3
-15 1 -15 -4z"/>
<path d="M1966 2008 c-3 -13 0 -27 6 -33 8 -7 9 -6 4 3 -4 6 -2 12 3 12 13 0
15 27 2 34 -5 3 -11 -4 -15 -16z"/>
<path d="M1650 1968 c0 -6 7 -20 17 -30 11 -12 12 -18 3 -18 -8 0 -10 -8 -6
-23 3 -14 -1 -32 -9 -43 -29 -39 -8 -115 29 -101 16 6 20 -5 18 -48 -1 -12 5
-7 15 15 9 19 20 44 25 56 13 29 -18 104 -43 104 -12 0 -16 5 -13 15 5 12 10
13 20 4 29 -24 6 29 -27 62 -22 22 -29 24 -29 7z"/>
<path d="M754 1882 c-18 -73 -20 -77 -49 -80 -46 -5 -51 -19 -14 -38 31 -15
32 -18 14 -24 -23 -9 -38 -3 -30 11 3 5 -1 6 -10 3 -10 -4 -15 -2 -13 7 2 8
-6 14 -19 15 -13 1 -23 -1 -23 -5 1 -6 49 -38 142 -94 l46 -28 56 27 c30 14
59 31 64 37 12 16 62 167 62 189 0 11 -12 18 -40 23 -22 4 -46 12 -53 19 -6 6
-35 12 -63 13 l-51 2 -19 -77z"/>
<path d="M1976 1908 c-3 -23 -8 -56 -10 -73 -2 -16 -5 -33 -5 -37 -1 -4 -18
-15 -38 -24 l-38 -16 39 -17 c32 -14 36 -19 22 -24 -25 -10 -28 -9 -20 6 5 8
2 8 -9 -2 -15 -12 -17 -11 -17 5 0 16 -2 17 -10 4 -9 -13 -14 -8 -12 11 1 4
-8 5 -18 2 -11 -3 -20 -7 -20 -9 0 -2 25 -16 56 -31 32 -15 59 -35 62 -45 3
-13 8 -16 16 -8 9 6 22 6 42 -1 26 -10 35 -8 79 21 28 18 53 36 57 39 4 4 15
45 23 91 9 47 18 92 21 101 4 13 -10 18 -73 28 -43 7 -92 15 -110 18 -31 5
-32 4 -37 -39z"/>
<path d="M248 1885 c-8 -18 -9 -35 -2 -53 8 -22 15 -27 44 -27 28 0 37 5 48
28 12 24 11 31 -2 53 -23 34 -72 33 -88 -1z m56 -1 c21 -8 21 -50 0 -58 -32
-12 -57 27 -32 52 14 14 12 14 32 6z"/>
<path d="M1158 1813 c-19 -3 -28 -10 -28 -23 0 -13 5 -17 15 -14 8 4 12 11 8
17 -4 6 0 8 10 4 9 -3 18 0 21 9 3 8 4 13 3 13 -1 -1 -14 -4 -29 -6z"/>
<path d="M1200 1810 c0 -5 5 -10 11 -10 5 0 7 5 4 10 -3 6 -8 10 -11 10 -2 0
-4 -4 -4 -10z"/>
<path d="M964 1798 c-4 -6 -2 -14 4 -16 19 -6 26 -3 28 13 3 18 -22 20 -32 3z"/>
<path d="M1044 1799 c-7 -12 15 -31 28 -23 4 3 8 12 8 20 0 17 -26 19 -36 3z"/>
<path d="M1797 1795 c-7 -16 8 -29 23 -20 15 9 12 35 -4 35 -8 0 -16 -7 -19
-15z"/>
<path d="M1880 1795 c0 -8 7 -15 15 -15 8 0 15 7 15 15 0 8 -7 15 -15 15 -8 0
-15 -7 -15 -15z"/>
<path d="M1424 1785 c22 -17 40 -20 32 -6 -3 5 -16 11 -28 14 -22 6 -22 5 -4
-8z"/>
<path d="M240 1765 c0 -11 12 -15 50 -15 38 0 50 4 50 15 0 11 -12 15 -50 15
-38 0 -50 -4 -50 -15z"/>
<path d="M1167 1773 c-12 -11 -8 -32 13 -77 21 -48 106 -130 126 -122 7 3 15
0 17 -7 3 -8 10 -5 21 8 15 20 15 20 16 -2 0 -13 5 -23 10 -23 12 0 12 6 -5
50 -11 28 -14 30 -14 13 -1 -24 -16 -29 -39 -14 -19 11 -17 24 5 32 16 7 15 8
-4 8 -13 1 -24 8 -24 16 -1 8 -2 21 -3 28 0 6 -8 12 -16 12 -8 0 -16 9 -18 20
-2 11 -8 25 -14 30 -6 7 -9 7 -8 0 2 -5 2 -19 1 -30 -1 -16 -3 -17 -10 -6 -5
8 -8 23 -6 33 3 14 -2 18 -23 18 -21 0 -24 2 -12 10 8 5 10 10 4 10 -6 0 -14
-3 -17 -7z m30 -43 c-1 -11 -5 -20 -9 -20 -4 0 -8 9 -8 20 0 11 4 20 9 20 6 0
9 -9 8 -20z m67 -48 c2 -4 0 -14 -5 -22 -8 -13 -10 -13 -18 0 -10 15 -6 30 9
30 5 0 11 -4 14 -8z"/>
<path d="M244 1704 c-8 -33 6 -58 35 -62 15 -3 21 2 22 17 2 33 4 39 12 47 4
4 7 -9 7 -29 0 -41 15 -50 22 -14 7 39 -9 69 -34 65 -18 -2 -24 -11 -29 -38
-4 -27 -7 -31 -13 -17 -5 9 -6 24 -3 32 4 8 2 17 -3 20 -5 3 -12 -6 -16 -21z"/>
<path d="M1270 1720 c0 -5 5 -10 11 -10 5 0 7 5 4 10 -3 6 -8 10 -11 10 -2 0
-4 -4 -4 -10z"/>
<path d="M1660 1691 c0 -33 -11 -50 -28 -44 -13 4 -14 3 -3 -5 7 -5 10 -15 7
-21 -11 -17 -36 -13 -37 7 0 9 -5 2 -11 -17 -7 -26 -12 -31 -19 -20 -5 9 -9
10 -9 2 0 -19 20 -26 26 -9 3 9 10 13 16 10 12 -8 58 35 58 53 0 8 4 12 8 9 5
-3 6 8 4 25 -5 33 -12 39 -12 10z"/>
<path d="M3035 1653 c-42 -49 -225 -172 -425 -288 -133 -77 -164 -110 -187
-197 -7 -29 -13 -75 -13 -102 0 -44 -4 -55 -37 -88 -31 -32 -35 -40 -23 -48 8
-5 25 -10 38 -10 16 0 22 -6 22 -21 0 -12 7 -27 16 -33 8 -7 18 -31 21 -54 3
-23 9 -42 14 -42 4 0 15 -7 24 -16 22 -23 87 -29 148 -15 56 13 237 1 260 -17
22 -17 145 -62 169 -62 56 0 133 32 171 72 20 21 35 42 33 46 -2 4 -37 9 -78
10 -80 3 -114 10 -231 49 -88 28 -121 26 -196 -12 -55 -27 -104 -39 -130 -30
-11 3 -29 23 -41 43 -12 20 -28 41 -36 45 -8 4 -14 16 -14 27 0 10 -9 22 -21
25 -17 6 -20 12 -14 33 7 27 8 48 4 101 -5 70 65 134 332 301 83 52 168 108
190 123 46 32 79 81 79 118 0 30 -19 89 -28 88 -4 0 -25 -21 -47 -46z"/>
<path d="M335 1600 c4 -16 3 -35 -1 -42 -6 -9 -10 -6 -14 10 -6 28 -26 29 -22
2 5 -32 -15 -23 -21 10 -9 44 -27 37 -20 -7 3 -21 9 -41 12 -46 4 -4 28 -4 54
-1 51 7 48 1 32 79 -3 14 -10 25 -16 25 -7 0 -8 -11 -4 -30z"/>
<path d="M873 1618 c2 -7 10 -13 17 -13 7 0 15 6 18 13 2 7 -5 12 -18 12 -13
0 -20 -5 -17 -12z"/>
<path d="M1965 1617 c-4 -10 -5 -21 -1 -24 10 -10 18 4 13 24 -4 17 -4 17 -12
0z"/>
<path d="M1925 1580 c-3 -5 -2 -10 4 -10 5 0 13 5 16 10 3 6 2 10 -4 10 -5 0
-13 -4 -16 -10z"/>
<path d="M913 1548 c2 -7 10 -13 17 -13 7 0 15 6 18 13 2 7 -5 12 -18 12 -13
0 -20 -5 -17 -12z"/>
<path d="M1915 1539 c-4 -6 -5 -13 -2 -16 7 -7 27 6 27 18 0 12 -17 12 -25 -2z"/>
<path d="M1880 1515 c-8 -9 -8 -15 -2 -15 12 0 26 19 19 26 -2 2 -10 -2 -17
-11z"/>
<path d="M1420 1505 c0 -10 7 -15 18 -13 21 4 19 22 -2 26 -10 2 -16 -3 -16
-13z"/>
<path d="M284 1475 c3 -13 10 -35 15 -49 l10 -24 45 16 c48 18 66 47 22 36
-19 -4 -26 -1 -31 15 -9 30 -27 26 -19 -4 4 -15 2 -25 -4 -25 -6 0 -13 14 -17
30 -4 17 -11 30 -17 30 -6 0 -8 -10 -4 -25z"/>
<path d="M960 1483 c0 -6 4 -14 9 -17 15 -10 40 5 35 19 -7 17 -44 15 -44 -2z"/>
<path d="M1867 1483 c-4 -3 -7 -13 -7 -21 0 -12 3 -12 15 -2 8 7 15 16 15 21
0 11 -14 12 -23 2z"/>
<path d="M1820 1449 c0 -5 5 -7 10 -4 6 3 10 8 10 11 0 2 -4 4 -10 4 -5 0 -10
-5 -10 -11z"/>
<path d="M1020 1431 c0 -6 4 -12 9 -15 13 -8 42 4 35 15 -7 12 -44 12 -44 0z"/>
<path d="M1420 1426 c0 -8 4 -17 8 -20 13 -8 35 11 28 23 -10 16 -36 14 -36
-3z"/>
<path d="M1805 1419 c-4 -6 -5 -13 -2 -16 7 -7 27 6 27 18 0 12 -17 12 -25 -2z"/>
<path d="M1750 1400 c0 -5 7 -7 15 -4 8 4 15 8 15 10 0 2 -7 4 -15 4 -8 0 -15
-4 -15 -10z"/>
<path d="M352 1388 c-33 -33 3 -103 49 -96 59 8 51 108 -9 108 -16 0 -33 -5
-40 -12z m52 -14 c21 -8 21 -50 0 -58 -9 -4 -23 -1 -30 5 -17 14 -18 46 -1 52
6 3 13 6 14 6 1 1 8 -2 17 -5z"/>
<path d="M1090 1381 c0 -15 16 -22 34 -15 25 9 19 24 -9 24 -14 0 -25 -4 -25
-9z"/>
<path d="M1725 1370 c-3 -5 3 -10 14 -10 12 0 21 5 21 10 0 6 -6 10 -14 10 -8
0 -18 -4 -21 -10z"/>
<path d="M1667 1348 c-21 -22 -16 -34 9 -24 9 4 14 9 11 13 -4 3 -2 12 4 20
18 21 -4 14 -24 -9z"/>
<path d="M1178 1352 c-10 -2 -18 -8 -18 -13 0 -11 30 -12 48 0 11 7 11 9 0 13
-7 2 -21 3 -30 0z"/>
<path d="M1361 1314 c-103 -79 -107 -82 -91 -87 8 -3 50 -11 93 -17 l79 -12
71 71 c38 39 68 71 66 72 -2 0 -40 4 -83 8 l-79 7 -56 -42z"/>
<path d="M1600 1330 c0 -5 -7 -10 -15 -10 -8 0 -15 -4 -15 -10 0 -5 9 -10 20
-10 11 0 20 6 20 14 0 8 6 17 13 19 7 3 5 6 -5 6 -10 1 -18 -3 -18 -9z"/>
<path d="M1258 1323 c-10 -2 -18 -9 -18 -14 0 -15 36 -10 50 6 13 16 5 18 -32
8z"/>
<path d="M455 1291 c-5 -15 -12 -20 -24 -16 -30 9 -45 -19 -27 -52 31 -56 30
-56 74 -27 23 15 42 31 42 34 0 14 -14 19 -26 9 -21 -18 -35 -2 -23 28 6 16 6
30 0 36 -5 5 -12 1 -16 -12z m-7 -62 c12 -18 11 -20 -5 -17 -10 2 -19 11 -21
21 -5 23 10 21 26 -4z"/>
<path d="M476 1164 c-17 -16 -13 -28 21 -71 l18 -22 39 33 c24 21 36 38 31 45
-5 9 -12 8 -25 -4 -15 -14 -18 -14 -23 -1 -11 27 -44 38 -61 20z m44 -29 c7
-9 10 -18 7 -22 -8 -7 -37 15 -37 28 0 14 16 11 30 -6z"/>
<path d="M611 1051 c-17 -66 -10 -74 44 -53 41 16 59 37 32 37 -24 1 -46 20
-44 39 4 41 -20 23 -32 -23z m34 -20 c3 -5 1 -12 -5 -16 -5 -3 -10 1 -10 9 0
18 6 21 15 7z"/>
<path d="M716 1013 c-4 -4 6 -17 21 -28 l27 -22 -22 -31 c-25 -35 -27 -42 -9
-42 6 0 24 18 39 39 l28 39 -39 25 c-21 14 -42 23 -45 20z"/>
<path d="M805 951 c-3 -6 8 -17 25 -26 17 -9 28 -20 25 -25 -4 -7 -13 -7 -24
0 -28 14 -33 0 -8 -21 28 -23 2 -27 -30 -4 -13 9 -24 11 -28 5 -5 -8 62 -50
79 -50 7 0 49 81 44 84 -36 26 -78 45 -83 37z"/>
<path d="M891 851 c-19 -36 -19 -51 1 -51 4 0 8 6 8 14 0 8 9 24 19 37 18 22
21 23 36 8 15 -15 16 -19 1 -47 -19 -38 -20 -42 -3 -42 8 0 20 19 27 41 13 39
13 42 -9 60 -36 29 -58 24 -80 -20z"/>
<path d="M1213 875 c-34 -24 -28 -34 16 -28 65 9 424 -119 645 -229 202 -101
256 -133 256 -151 0 -6 -45 -61 -100 -120 -72 -79 -101 -117 -106 -143 -13
-69 47 -114 153 -114 83 0 193 12 193 20 0 4 -44 15 -97 25 -54 10 -114 24
-133 32 l-35 15 65 56 c150 131 202 204 186 266 -23 90 -190 191 -476 287
-251 83 -515 123 -567 84z"/>
<path d="M1010 830 c0 -5 13 -10 29 -10 33 0 54 -20 45 -44 -7 -18 -49 -22
-59 -6 -3 6 -13 10 -22 10 -13 0 -13 -2 -2 -16 23 -28 59 -36 85 -19 29 19 31
55 6 78 -20 18 -82 23 -82 7z"/>
<path d="M1137 803 c-15 -15 -5 -44 18 -55 14 -6 25 -15 25 -20 0 -12 -13 -10
-39 8 -21 15 -23 15 -19 -1 4 -25 54 -41 73 -25 24 20 17 41 -15 53 -16 6 -30
15 -30 19 0 11 18 10 42 -3 27 -14 38 -1 14 17 -21 15 -58 19 -69 7z"/>
<path d="M1230 780 c0 -5 9 -10 19 -10 27 0 51 -10 51 -22 0 -6 -11 -7 -26 -4
-19 5 -25 3 -22 -6 3 -7 14 -14 26 -16 12 -2 20 -7 17 -12 -3 -5 -21 -6 -40
-3 -22 3 -35 2 -35 -5 0 -10 87 -29 95 -21 2 2 6 25 10 50 7 46 7 46 -25 53
-46 9 -70 8 -70 -4z"/>
<path d="M1045 479 c-4 -6 2 -13 14 -16 18 -5 21 -13 21 -63 0 -75 17 -91 96
-91 75 0 94 19 94 97 0 41 4 54 15 54 8 0 15 7 15 16 0 12 -10 14 -52 12 -30
-2 -53 -8 -56 -15 -2 -7 4 -13 13 -13 13 0 15 -10 13 -56 -4 -67 -21 -85 -62
-66 -23 10 -26 17 -26 67 0 42 3 55 15 55 8 0 15 7 15 15 0 11 -13 15 -54 15
-30 0 -58 -5 -61 -11z"/>
<path d="M1340 475 c0 -8 9 -15 20 -15 17 0 19 -7 19 -56 -1 -47 -4 -57 -20
-61 -10 -3 -19 -12 -19 -19 0 -10 15 -14 55 -14 42 0 55 3 55 15 0 8 -7 15
-15 15 -11 0 -15 12 -15 46 0 25 4 43 9 39 5 -3 7 -21 4 -40 -4 -24 -2 -35 7
-35 8 0 10 8 6 25 -9 36 -1 31 28 -20 24 -40 31 -45 61 -45 l35 0 0 75 c0 60
3 75 15 75 8 0 15 7 15 15 0 11 -12 15 -50 15 -38 0 -50 -4 -50 -15 0 -8 7
-15 15 -15 11 0 15 -12 15 -46 0 -25 -4 -43 -9 -39 -5 3 -7 21 -4 40 4 28 2
35 -11 35 -19 0 -21 -11 -4 -28 6 -6 9 -14 6 -17 -3 -3 -18 15 -32 40 -27 45
-27 45 -81 45 -42 0 -55 -3 -55 -15z"/>
<path d="M1640 476 c0 -8 8 -16 17 -18 11 -2 18 -14 19 -33 1 -17 2 -42 3 -57
2 -43 25 -58 91 -58 77 0 90 13 90 91 0 52 2 59 20 59 11 0 20 7 20 15 0 12
-13 15 -55 15 -42 0 -55 -3 -55 -15 0 -8 7 -15 15 -15 21 0 21 -93 -1 -114
-17 -18 -42 -20 -63 -7 -17 11 -21 100 -4 117 25 25 13 34 -42 34 -41 0 -55
-4 -55 -14z"/>
<path d="M1170 468 c0 -10 -7 -18 -15 -18 -11 0 -15 -12 -15 -50 0 -27 5 -50
10 -50 6 0 10 18 10 40 0 22 4 40 9 40 14 0 20 25 10 41 -7 11 -9 11 -9 -3z"/>
<path d="M1310 465 c0 -8 -7 -15 -15 -15 -11 0 -15 -12 -15 -45 0 -84 -27
-110 -113 -108 -29 0 -36 -2 -27 -11 6 -6 32 -11 57 -10 39 1 51 6 75 33 22
24 28 41 28 76 0 33 4 45 15 45 9 0 15 9 15 25 0 14 -4 25 -10 25 -5 0 -10 -7
-10 -15z"/>
<path d="M1610 466 c0 -9 -7 -16 -15 -16 -12 0 -15 -15 -15 -75 l0 -75 -31 0
c-17 0 -28 -4 -24 -10 3 -5 22 -10 41 -10 l34 0 0 75 c0 60 3 75 15 75 17 0
21 35 5 45 -5 3 -10 -1 -10 -9z"/>
<path d="M1760 465 c0 -8 -4 -15 -10 -15 -5 0 -10 -22 -10 -50 0 -27 3 -50 8
-50 4 0 6 18 4 40 -3 32 -1 40 12 40 10 0 16 9 16 25 0 14 -4 25 -10 25 -5 0
-10 -7 -10 -15z"/>
<path d="M1910 467 c0 -8 -9 -17 -20 -20 -17 -4 -20 -14 -20 -60 0 -71 -19
-89 -94 -91 -58 0 -66 -10 -17 -19 40 -8 97 9 116 36 8 12 15 43 15 69 0 41 3
48 20 48 21 0 29 33 10 45 -5 3 -10 0 -10 -8z"/>
<path d="M1460 315 c0 -12 -13 -15 -56 -15 -34 0 -53 -4 -49 -10 3 -5 33 -10
66 -10 56 0 59 1 59 25 0 14 -4 25 -10 25 -5 0 -10 -7 -10 -15z"/>
</g>
</svg>
